<svg xmlns="http://www.w3.org/2000/svg" viewBox="0 0 100 100">
  <defs>
    <linearGradient id="twgrad" x1="0%" y1="0%" x2="100%" y2="100%">
      <stop offset="0%" stop-color="#38bdf8"/>
      <stop offset="100%" stop-color="#0ea5e9"/>
    </linearGradient>
  </defs>
  <path d="M19.1 39.2c9-7.2 17-7.3 22.2-7.3 9.8 0 15.9 5.2 18.8 8.9 3.5 4.5 5.2 10 7.9 10.1 3 .1 4.8-5.1 4.9-5.2.6-1.5 1.7-3.3 1.7-3.3-6.6-4.1-16.8-6.8-27.8-6.8-12 0-24.3 4.7-34.2 12.6l-6.2 4.8 4.2 5.4 6.4-4.4c8.5-5.8 18.4-9.4 28.4-9.4 11.9 0 20.6 4.7 26.5 8.6-.2 1.4-1.4 9.3-10.9 9.3-8.5 0-12.4-4.8-20.4-4.8-7.8 0-13.1 4.6-18.8 10.1l-5.4 5 4.7 5.3 5.1-4.7c6.3-5.9 12.7-9.2 21.8-9.2 11.4 0 19.1 5.9 24.6 10.8.4.5.7 1.1 1.1 1.6-.1.1-.2.2-.3.4-10.4 14.2-28.5 7.7-38.8 3.7-1.2-.5-2.3.2-2.8 1.3-.5 1.1.1 2.3 1.2 2.8 13.8 6.2 33.1 13.7 52.7-2.7.4-.3.9-.8 1.2-1.3 10.9-15.7 12.6-43.1-25.4-49.1-12.8-2.1-25.6 2.1-34.5 10z" fill="url(#twgrad)"/>
</svg>